Coordinates
version=1
nRows=49
nColumns=12
inDegrees=yes

Units are S.I. units (second, meters, Newtons, ...)
Angles are in degrees

endheader
time	SC_y	SC_z	SC_x	AC_y	AC_z	AC_x	GH_y	GH_z	GH_yy	EL_x	PS_y
       0.0              -42.64          13.83          35.13          62.78          2.375         -17.92          -19.5          5.258         -138.5          104.4          34.76
  0.003849              -42.64          13.83          35.13          62.78          2.372         -17.92         -19.47          5.268         -138.5          104.4          34.76
  0.007697              -42.64          13.84          35.13          62.77          2.369         -17.91         -19.44          5.279         -138.4          104.4          34.77
   0.01155              -42.64          13.84          35.13          62.77          2.366         -17.91         -19.41           5.29         -138.4          104.3          34.78
   0.01539              -42.64          13.84          35.14          62.77          2.363         -17.91         -19.38          5.301         -138.4          104.3          34.79
   0.01924              -42.65          13.84          35.14          62.76          2.359          -17.9         -19.34          5.314         -138.3          104.3           34.8
   0.02309              -42.65          13.85          35.15          62.76          2.356          -17.9          -19.3          5.327         -138.3          104.3          34.81
   0.02694              -42.65          13.85          35.15          62.76          2.352          -17.9         -19.26          5.341         -138.2          104.3          34.82
   0.03079              -42.65          13.85          35.15          62.75          2.347         -17.89         -19.22          5.357         -138.2          104.3          34.83
   0.03464              -42.65          13.86          35.16          62.75          2.343         -17.89         -19.17          5.373         -138.1          104.2          34.84
   0.03849              -42.66          13.86          35.16          62.74          2.338         -17.89         -19.12          5.391         -138.1          104.2          34.85
   0.04233              -42.66          13.87          35.17          62.74          2.333         -17.88         -19.06          5.409         -138.0          104.2          34.86
   0.04618              -42.66          13.87          35.17          62.73          2.327         -17.88          -19.0           5.43         -138.0          104.1          34.88
   0.05003              -42.66          13.88          35.18          62.73          2.321         -17.87         -18.94          5.452         -137.9          104.1          34.89
   0.05388              -42.67          13.88          35.19          62.72          2.314         -17.86         -18.87          5.476         -137.8          104.1          34.91
   0.05773              -42.67          13.89          35.19          62.71          2.307         -17.86         -18.79          5.502         -137.7          104.0          34.93
   0.06158              -42.67          13.89           35.2           62.7          2.299         -17.85         -18.71           5.53         -137.7          104.0          34.95
   0.06543              -42.68           13.9          35.21          62.69          2.291         -17.84         -18.62           5.56         -137.6          104.0          34.97
   0.06927              -42.68          13.91          35.22          62.68          2.281         -17.84         -18.53          5.594         -137.5          103.9          34.99
   0.07312              -42.69          13.92          35.23          62.67          2.271         -17.83         -18.42           5.63         -137.3          103.9          35.02
   0.07697              -42.69          13.93          35.24          62.66           2.26         -17.82          -18.3          5.671         -137.2          103.8          35.05
   0.08082               -42.7          13.94          35.25          62.65          2.248         -17.81         -18.17          5.715         -137.1          103.7          35.08
   0.08467               -42.7          13.95          35.27          62.64          2.234         -17.79         -18.03          5.764         -136.9          103.7          35.12
   0.08852              -42.71          13.96          35.28          62.62          2.219         -17.78         -17.88          5.818         -136.8          103.6          35.15
   0.09236              -42.72          13.97           35.3           62.6          2.202         -17.77          -17.7          5.878         -136.6          103.5           35.2
   0.09621              -42.73          13.99          35.32          62.58          2.183         -17.75         -17.51          5.945         -136.4          103.4          35.24
    0.1001              -42.74           14.0          35.34          62.56          2.162         -17.73         -17.29          6.021         -136.1          103.3           35.3
    0.1039              -42.75          14.02          35.36          62.54          2.139         -17.71         -17.04          6.105         -135.9          103.2          35.36
    0.1078              -42.76          14.05          35.39          62.51          2.112         -17.69         -16.76          6.201         -135.6          103.0          35.43
    0.1116              -42.77          14.07          35.42          62.48          2.082         -17.66         -16.45           6.31         -135.2          102.9           35.5
    0.1155              -42.79           14.1          35.45          62.45          2.047         -17.63         -16.09          6.434         -134.9          102.7          35.59
    0.1193              -42.81          14.13          35.49          62.41          2.008          -17.6         -15.67          6.576         -134.4          102.5          35.69
    0.1232              -42.83          14.17          35.53          62.36          1.962         -17.56          -15.2           6.74         -133.9          102.3          35.81
     0.127              -42.85          14.21          35.59           62.3          1.909         -17.51         -14.64          6.931         -133.3          102.0          35.94
    0.1309              -42.88          14.26          35.65          62.24          1.847         -17.46         -13.99          7.154         -132.6          101.7           36.1
    0.1347              -42.91          14.32          35.72          62.17          1.773         -17.39         -13.23          7.418         -131.8          101.3          36.29
    0.1385              -42.95          14.39          35.81          62.08          1.686         -17.32         -12.32          7.731         -130.8          100.8          36.51
    0.1424               -43.0          14.48          35.91          61.97          1.582         -17.23         -11.23          8.106         -129.7          100.3          36.78
    0.1462              -43.06          14.58          36.03          61.84          1.455         -17.12          -9.91          8.559         -128.3          99.63           37.1
    0.1501              -43.13          14.71          36.19          61.69          1.301         -16.98         -8.299          9.114         -126.5          98.83          37.49
    0.1539              -43.22          14.86          36.38          61.49           1.11         -16.82         -6.311          9.798         -124.4          97.84          37.98
    0.1578              -43.32          15.05          36.61          61.25         0.8727         -16.61         -3.832          10.65         -121.8          96.61          38.59
    0.1616              -43.46           15.3          36.91          60.94         0.5734         -16.35        -0.7098          11.73         -118.4          95.06          39.35
    0.1655              -43.64          15.61          37.28          60.56         0.1929         -16.02           3.26          13.09         -114.2          93.09          40.32
    0.1693              -43.86           16.0          37.76          60.06        -0.2942         -15.59          8.341          14.84         -108.8          90.57          41.56
    0.1732              -44.14          16.51          38.38          59.42        -0.9192         -15.05          14.86          17.08         -101.8          87.33          43.16
     0.177              -44.51          17.16          39.17          58.61         -1.718         -14.35          23.19          19.95          -92.9           83.2          45.19
    0.1809              -44.97          17.98          40.16          57.58         -2.721         -13.48          33.66          23.55         -81.72           78.0          47.75
    0.1847              -45.52          18.98          41.37          56.34         -3.945         -12.41          46.42          27.95         -68.09          71.66          50.87
